# xmcd CD database file
#
# Track frame offsets:
#	150
#	36472
#	75755
#	122666
#	173818
#	212376
#	259578
#
# Disc length: 3836 seconds
#
# Revision: 0
# Processed by: cddbd v1.5.2PL0 Copyright (c) Steve Scherf et al.
# Submitted via: CDex 1.70beta2
#
DISCID=4e0efa07
DTITLE=Bobby McFerrin - Vocabularies
DYEAR=2010
DGENRE=Jazz
TTITLE0=Baby
TTITLE1=Say Ladeo
TTITLE2=Wailers
TTITLE3=Messages
TTITLE4=The Garden
TTITLE5=He Ran To The Train
TTITLE6=Brief Eternity
EXTD=YEAR: 2010
EXTT0=
EXTT1=
EXTT2=
EXTT3=
EXTT4=
EXTT5=
EXTT6=
PLAYORDER=
